<?xml version="1.0" encoding="UTF-8"?>
<svg data-bbox="5.5 5 37.5 39.5" viewBox="0 0 48 48" xmlns="http://www.w3.org/2000/svg" data-type="ugc">
    <g>
        <path d="M5.5 36.5C5.5 31.253 9.753 26 15 26" stroke-width="3" stroke-miterlimit="10" stroke-linecap="round" stroke="#176758" fill="none"/>
        <path d="M43 18.5c0 5.247-4.477 9.5-10 9.5" stroke-width="3.078" stroke-miterlimit="10" stroke-linecap="round" stroke="#176758" fill="none"/>
        <path stroke-width="3" stroke-miterlimit="10" stroke-linecap="round" stroke="#176758" fill="none" d="M17.5 36.5v8"/>
        <path stroke-width="3" stroke-miterlimit="10" stroke-linecap="round" stroke="#176758" fill="none" d="M30.5 36.5v8"/>
        <linearGradient gradientUnits="userSpaceOnUse" y2="15.384" y1=".549" x2="21.011" x1="14.78" id="7d4b5de4-6636-40ff-9c4a-3bfb003c9fb7">
            <stop stop-color="#55c8aa" offset="0"/>
            <stop stop-color="#4cc0a6" offset=".544"/>
            <stop stop-color="#41b6a1" offset="1"/>
        </linearGradient>
        <path d="M35.667 40H12.333C11.044 40 10 39.079 10 37.941V7.059C10 5.921 11.044 5 12.333 5h23.333C36.956 5 38 5.921 38 7.059v30.882C38 39.079 36.956 40 35.667 40z" fill="url(#7d4b5de4-6636-40ff-9c4a-3bfb003c9fb7)"/>
        <linearGradient gradientUnits="userSpaceOnUse" y2="24.539" y1="3.44" x2="26.034" x1="21.286" id="aadf32c9-8b97-45e0-9da3-b857b34d332b">
            <stop stop-color="#f6f6f6" offset="0"/>
            <stop stop-color="#edeeef" offset=".228"/>
            <stop stop-color="#d6d9db" offset=".595"/>
            <stop stop-color="#b4bbc0" offset="1"/>
        </linearGradient>
        <path d="M33.778 23H14.222C13.548 23 13 22.483 13 21.846V9.154C13 8.517 13.548 8 14.222 8h19.556C34.452 8 35 8.517 35 9.154v12.692c0 .637-.548 1.154-1.222 1.154z" fill="url(#aadf32c9-8b97-45e0-9da3-b857b34d332b)"/>
        <path d="M14 25h12a1 1 0 0 1 0 2H14a1 1 0 0 1 0-2z" fill="#272727"/>
        <path fill="#272727" d="M35 26a1 1 0 1 1-2 0 1 1 0 0 1 2 0z"/>
        <path d="M20.5 32H19v-1.5a.5.5 0 0 0-.5-.5h-1a.5.5 0 0 0-.5.5V32h-1.5a.5.5 0 0 0-.5.5v1a.5.5 0 0 0 .5.5H17v1.5a.5.5 0 0 0 .5.5h1a.5.5 0 0 0 .5-.5V34h1.5a.5.5 0 0 0 .5-.5v-1a.5.5 0 0 0-.5-.5z" fill="#fac600"/>
        <path d="M31 31a2 2 0 1 0-.001 3.999A2 2 0 0 0 31 31z" fill="#c22300"/>
        <path fill="#272727" d="M19 14a1 1 0 1 1-2 0 1 1 0 0 1 2 0z"/>
        <path fill="#272727" d="M31 14a1 1 0 1 1-2 0 1 1 0 0 1 2 0z"/>
        <path d="M24 17.42c-2.22 0-4-.92-4 0 0 .67.49 1.67 1.83 2.21.54-.39 1.31-.63 2.17-.63s1.63.24 2.17.63c1.34-.54 1.83-1.54 1.83-2.21 0-.92-1.79 0-4 0z" fill="#272727"/>
        <path d="M26.17 19.63c-.56.23-1.28.37-2.17.37s-1.61-.14-2.17-.37c.54-.39 1.31-.63 2.17-.63s1.63.24 2.17.63z" fill="#d75b60"/>
        <path opacity=".05" d="M33.778 8C34.452 8 35 8.517 35 9.154v12.692c0 .637-.548 1.154-1.222 1.154H14.222C13.548 23 13 22.483 13 21.846V9.154C13 8.517 13.548 8 14.222 8h19.556m0-1H14.222C12.997 7 12 7.966 12 9.154v12.692c0 1.188.997 2.154 2.222 2.154h19.556C35.003 24 36 23.034 36 21.846V9.154C36 7.966 35.003 7 33.778 7z" fill="#151515"/>
        <path opacity=".05" d="M18.5 30a.5.5 0 0 1 .5.5V32h1.5a.5.5 0 0 1 .5.5v1a.5.5 0 0 1-.5.5H19v1.5a.5.5 0 0 1-.5.5h-1a.5.5 0 0 1-.5-.5V34h-1.5a.5.5 0 0 1-.5-.5v-1a.5.5 0 0 1 .5-.5H17v-1.5a.5.5 0 0 1 .5-.5h1m0-1.2h-1c-.937 0-1.7.763-1.7 1.7v.3h-.3c-.937 0-1.7.763-1.7 1.7v1c0 .937.763 1.7 1.7 1.7h.3v.3c0 .937.763 1.7 1.7 1.7h1c.937 0 1.7-.763 1.7-1.7v-.3h.3c.937 0 1.7-.763 1.7-1.7v-1c0-.937-.763-1.7-1.7-1.7h-.3v-.3c0-.937-.763-1.7-1.7-1.7z" fill="#151515"/>
        <path opacity=".05" d="M31 31a2 2 0 1 1 .001 3.999A2 2 0 0 1 31 31m0-1c-1.654 0-3 1.346-3 3s1.346 3 3 3 3-1.346 3-3-1.346-3-3-3z" fill="#151515"/>
        <path opacity=".05" d="M33.778 8C34.452 8 35 8.517 35 9.154v12.692c0 .637-.548 1.154-1.222 1.154H14.222C13.548 23 13 22.483 13 21.846V9.154C13 8.517 13.548 8 14.222 8h19.556m0-.5H14.222c-.95 0-1.722.742-1.722 1.654v12.692c0 .912.773 1.654 1.722 1.654h19.556c.95 0 1.722-.742 1.722-1.654V9.154c0-.912-.773-1.654-1.722-1.654z" fill="#151515"/>
        <path opacity=".05" d="M18.5 30a.5.5 0 0 1 .5.5V32h1.5a.5.5 0 0 1 .5.5v1a.5.5 0 0 1-.5.5H19v1.5a.5.5 0 0 1-.5.5h-1a.5.5 0 0 1-.5-.5V34h-1.5a.5.5 0 0 1-.5-.5v-1a.5.5 0 0 1 .5-.5H17v-1.5a.5.5 0 0 1 .5-.5h1m0-.6h-1a1.1 1.1 0 0 0-1.1 1.1v.9h-.9a1.1 1.1 0 0 0-1.1 1.1v1a1.1 1.1 0 0 0 1.1 1.1h.9v.9a1.1 1.1 0 0 0 1.1 1.1h1a1.1 1.1 0 0 0 1.1-1.1v-.9h.9a1.1 1.1 0 0 0 1.1-1.1v-1a1.1 1.1 0 0 0-1.1-1.1h-.9v-.9a1.1 1.1 0 0 0-1.1-1.1z" fill="#151515"/>
        <path opacity=".05" d="M31 31a2 2 0 1 1 .001 3.999A2 2 0 0 1 31 31m0-.5a2.503 2.503 0 0 0-2.5 2.5c0 1.379 1.122 2.5 2.5 2.5s2.5-1.121 2.5-2.5c0-1.378-1.122-2.5-2.5-2.5z" fill="#151515"/>
    </g>
</svg>
